<svg xmlns="http://www.w3.org/2000/svg" xmlns:xlink="http://www.w3.org/1999/xlink" viewBox="0 0 639.15 616.54"><defs><style>.cls-1{isolation:isolate;}.cls-2{fill:#00620c;}.cls-3{fill:#004e07;}.cls-3,.cls-31,.cls-6{opacity:0.4;}.cls-12,.cls-16,.cls-19,.cls-20,.cls-21,.cls-27,.cls-3,.cls-31,.cls-6,.cls-8{mix-blend-mode:multiply;}.cls-4{fill:#007f20;}.cls-5{fill:#00984e;}.cls-6{fill:#008449;}.cls-7{fill:#08b562;}.cls-8{fill:url(#radial-gradient);}.cls-9{fill:url(#linear-gradient);}.cls-10{fill:url(#linear-gradient-2);}.cls-11{fill:url(#linear-gradient-3);}.cls-12{fill:#f5f5f5;}.cls-12,.cls-16,.cls-19,.cls-20,.cls-21,.cls-27{opacity:0.6;}.cls-13{fill:url(#linear-gradient-4);}.cls-14{fill:url(#linear-gradient-5);}.cls-15{fill:url(#linear-gradient-6);}.cls-16{fill:url(#linear-gradient-7);}.cls-17{fill:url(#linear-gradient-8);}.cls-18{fill:url(#linear-gradient-9);}.cls-19{fill:url(#linear-gradient-10);}.cls-20,.cls-24{fill:#663700;}.cls-21{fill:url(#linear-gradient-11);}.cls-22{fill:url(#linear-gradient-12);}.cls-23{fill:url(#linear-gradient-13);}.cls-25{fill:#a7600c;}.cls-26{fill:#7e4300;}.cls-27,.cls-31{fill:#aa710a;}.cls-28{fill:#412106;}.cls-29{fill:#fff;opacity:0.3;}.cls-30{fill:url(#linear-gradient-14);}.cls-32{fill:url(#linear-gradient-15);}.cls-33{fill:#6f4935;}</style><radialGradient id="radial-gradient" cx="316.03" cy="527.73" r="155.24" gradientTransform="translate(-331.01 375.94) scale(2.06 0.35)" gradientUnits="userSpaceOnUse"><stop offset="0"/><stop offset="1" stop-color="#fff" stop-opacity="0"/></radialGradient><linearGradient id="linear-gradient" x1="162.44" y1="468.14" x2="548.18" y2="468.14" gradientTransform="matrix(1.04, 0, 0, 1.06, -53.11, 14.29)" gradientUnits="userSpaceOnUse"><stop offset="0" stop-color="#c8c8c8"/><stop offset="0.34" stop-color="#bababb"/><stop offset="0.97" stop-color="#959799"/><stop offset="1" stop-color="#939598"/></linearGradient><linearGradient id="linear-gradient-2" x1="110.73" y1="502.43" x2="525.45" y2="502.43" gradientUnits="userSpaceOnUse"><stop offset="0" stop-color="#fff"/><stop offset="1" stop-color="#f1f2f2"/></linearGradient><linearGradient id="linear-gradient-3" x1="110.22" y1="499.69" x2="524.94" y2="499.69" gradientTransform="translate(0.21 0.64) rotate(-0.03)" xlink:href="#linear-gradient-2"/><linearGradient id="linear-gradient-4" x1="286.64" y1="357.04" x2="436.01" y2="357.04" gradientTransform="translate(-58.59 67.36) scale(1.05 1.21)" gradientUnits="userSpaceOnUse"><stop offset="0" stop-color="#bcbec0"/><stop offset="1" stop-color="#f1f2f2"/></linearGradient><linearGradient id="linear-gradient-5" x1="512.4" y1="342.92" x2="418.12" y2="483.34" gradientUnits="userSpaceOnUse"><stop offset="0" stop-color="#fff"/><stop offset="0.57" stop-color="#edeeef"/><stop offset="1" stop-color="#e6e7e8"/></linearGradient><linearGradient id="linear-gradient-6" x1="406.72" y1="394.26" x2="515.4" y2="394.26" xlink:href="#linear-gradient-2"/><linearGradient id="linear-gradient-7" x1="356.15" y1="458.25" x2="558.17" y2="424.86" gradientUnits="userSpaceOnUse"><stop offset="0" stop-color="#f1f2f2"/><stop offset="1" stop-color="#f1f2f2"/></linearGradient><linearGradient id="linear-gradient-8" x1="517.32" y1="414.42" x2="517.85" y2="414.42" xlink:href="#linear-gradient-2"/><linearGradient id="linear-gradient-9" x1="161.34" y1="392.64" x2="461.56" y2="392.64" gradientUnits="userSpaceOnUse"><stop offset="0" stop-color="#fff"/><stop offset="0.63" stop-color="#f1f1f2"/><stop offset="1" stop-color="#e6e7e8"/></linearGradient><linearGradient id="linear-gradient-10" x1="162.67" y1="392.64" x2="461.56" y2="392.64" xlink:href="#linear-gradient-7"/><linearGradient id="linear-gradient-11" x1="232.89" y1="395.98" x2="461.56" y2="395.98" xlink:href="#linear-gradient-7"/><linearGradient id="linear-gradient-12" x1="161.94" y1="312.99" x2="460.56" y2="312.99" xlink:href="#linear-gradient-2"/><linearGradient id="linear-gradient-13" x1="173.3" y1="311.28" x2="449.19" y2="311.28" gradientTransform="matrix(1, 0, 0, 1, 0, 0)" xlink:href="#linear-gradient"/><linearGradient id="linear-gradient-14" x1="336.38" y1="135.83" x2="375.28" y2="149.71" gradientTransform="translate(0.86 -2.36) rotate(0.37)" gradientUnits="userSpaceOnUse"><stop offset="0" stop-color="#663700"/><stop offset="1" stop-color="#420"/></linearGradient><linearGradient id="linear-gradient-15" x1="116.2" y1="-409.07" x2="143.84" y2="-399.22" gradientTransform="translate(427.65 488.79) rotate(-29.43)" xlink:href="#linear-gradient-14"/></defs><title>Asset 2@1x</title><g class="cls-1"><g id="Layer_2" data-name="Layer 2"><g id="Objects"><path class="cls-2" d="M426.49,477C423,477.78,317.17,319.6,571,305.08c0,0-22,35.89-22.34,61.56C548.32,389.87,520.29,456.62,426.49,477Z"/><path class="cls-3" d="M571,305.08C338.33,318.39,414.66,463.84,425.07,475.86c.89.75,1.42,1.15,1.42,1.15C397.23,335.13,571,305.08,571,305.08Z"/><path class="cls-4" d="M521,398.17c-15.17,47-56.2,63.06-94.52,78.84,93.8-20.39,121.83-87.14,122.15-110.37C549,341,571,305.08,571,305.08S538.83,342.88,521,398.17Z"/><path class="cls-5" d="M408.82,456.71c-2.23-1.75,43.24-136.79,225.76.92,0,0-49.23,5.73-70.43,20.82C545.3,491.88,475.16,508.7,408.82,456.71Z"/><path class="cls-6" d="M634.58,457.63C463.75,328.74,411.33,443,408.85,455.26c0,.93,0,1.45,0,1.45C485.57,366.21,634.58,457.63,634.58,457.63Z"/><path class="cls-7" d="M519.2,476.6c-44.75,15.41-80-3.89-110.38-19.89,66.34,52,136.48,35.17,155.33,21.74,21.2-15.09,70.43-20.82,70.43-20.82S575.67,457.12,519.2,476.6Z"/><ellipse class="cls-8" cx="319.58" cy="561.86" rx="319.58" ry="54.69"/><path class="cls-9" d="M519.63,510.84c-.19,33.12-90.57,59.46-201.86,58.82s-201.38-28-201.19-61.11,90.57-59.46,201.87-58.82S519.82,477.72,519.63,510.84Z"/><path class="cls-10" d="M525.45,502.43c0,29.1-92.84,52.7-207.36,52.7s-207.36-23.6-207.36-52.7,92.84-52.71,207.36-52.71S525.45,473.32,525.45,502.43Z"/><path class="cls-11" d="M525.45,500c0,27.84-92.81,50.46-207.33,50.53s-207.37-22.46-207.39-50.3,92.81-50.46,207.33-50.53S525.43,472.18,525.45,500Z"/><path class="cls-12" d="M525.45,500.14c0-27.85-92.84-50.42-207.36-50.42q-9.94,0-19.67.23h0S469,466.61,446.72,505s-163.08,35.36-214.31,41h0a786.36,786.36,0,0,0,85.68,4.5C432.61,550.55,525.45,528,525.45,500.14Z"/><path class="cls-12" d="M237.76,462s-76.41,12.07-90.08,31.37S163.77,528,163.77,528s-41.83-4.83-37.81-33S237.76,462,237.76,462Z"/><path class="cls-13" d="M397.56,500.91c0,10.08-35,18.26-78.14,18.26s-78.13-8.17-78.13-18.25,35-18.26,78.13-18.26S397.56,490.83,397.56,500.91Z"/><path class="cls-14" d="M461.37,339.33s12.56,4.76,25.27,2.76,48.14-2,40.78,44.13-49.75,81.2-133.53,75.7c0,0,6.81-20.74,20.36-25.15,0,0,74.73,3.5,92.45-38.52S486,348.66,452.86,375.8C452.86,375.8,455.5,350.62,461.37,339.33Z"/><path class="cls-15" d="M477.75,352.52c-13.09,1.31-17.64-2.93-19.22-6-3.89,12.32-5.67,29.31-5.67,29.31,33.1-27.14,71.55-19.56,53.84,22.45s-92.45,38.52-92.45,38.52a21.32,21.32,0,0,0-7.53,4.5h0c56.35,4.5,95.94-10.84,106.3-49.63S497.8,350.52,477.75,352.52Z"/><path class="cls-16" d="M516.91,415.56c-30.17,49.6-119.68,38.63-119.68,38.63l-3.34,7.73C458.66,466.17,498.68,446.17,516.91,415.56Z"/><path class="cls-17" d="M517.32,414.89l.53-.94C517.67,414.27,517.5,414.59,517.32,414.89Z"/><path class="cls-18" d="M460.56,319.35c-7.35-51.49-149.11-49.14-149.11-49.14s-141.76-2.35-149.11,49.14,27.41,94.95,54.83,127.72,28.08,42.12,28.75,50.15,30.09,18.52,65.53,17.85c35.44.67,64.86-9.83,65.53-17.85s1.34-17.39,28.75-50.15S467.91,370.84,460.56,319.35Z"/><path class="cls-19" d="M460.56,319.35c-7.35-51.49-149.11-49.14-149.11-49.14s-107.72-1.78-140.22,31.88a53.71,53.71,0,0,0-8.56,15.5s29.62,47.59,104.45,52.66c123.37,8.35,97.43,50.51,96.28,56.5C354.82,471.4,297.75,510.49,243,484.5a36.52,36.52,0,0,1,2.94,12.72c.67,8,30.09,18.52,65.53,17.85,35.44.67,64.86-9.83,65.53-17.85s1.34-17.39,28.75-50.15S467.91,370.84,460.56,319.35Z"/><path class="cls-20" d="M385.47,323.44c-22.15,25-103.38,27.08-103.59,27.09,9.46.59,19.28.92,29.37.92,71.08,0,129.58-15.66,137.1-35.77-.21-.14-29.17-24.81-114.75-28.08C337,288.11,407.12,299,385.47,323.44Z"/><path class="cls-21" d="M239.36,353.71s17.06,16.54,86.6,12.52S416.9,372.92,406.2,405,360.6,538.57,243,484.5a36.52,36.52,0,0,1,2.94,12.72c.67,8,30.09,18.52,65.53,17.85,35.44.67,64.86-9.83,65.53-17.85s1.34-17.39,28.75-50.15,62.18-76.23,54.83-127.72c-3.41-23.87-35.71-36.16-69.38-42.49C308,301.79,206.07,337.37,239.36,353.71Z"/><ellipse class="cls-22" cx="311.25" cy="312.99" rx="149.31" ry="46.46"/><path class="cls-23" d="M449.19,311.28c0,22.18-61.75,40.17-137.94,40.17s-137.95-18-137.95-40.17,61.76-40.17,138-40.17S449.19,289.09,449.19,311.28Z"/><path class="cls-24" d="M175,317.49c10.26,19.23,67.37,34,136.3,34,71.08,0,129.58-15.66,137.1-35.77-.23-.15-37-29.09-133.56-28.42C239.91,287.77,205.62,299.58,175,317.49Z"/><path class="cls-25" d="M319.27,295.35S194.91,305.69,206,327.6C206,327.6,167.24,300.2,319.27,295.35Z"/><path class="cls-26" d="M350.5,216.19s9.21-18.5-13.85-35.11c-17.86-12.86-37.57-17.67-50.76-4.09-15.92,16.4.62,41.46,17.75,48.68S341.11,235.65,350.5,216.19Z"/><path class="cls-27" d="M293.84,219.53h0c-9.95-16.95,5.83-14.82,1.14-35.64-3.7-16.43,24.64-12.2,24.64-12.2h0c-12.51-4.68-24.66-4-33.73,5.3C273.1,190.16,281.26,208.91,293.84,219.53Z"/><path class="cls-28" d="M348.21,215.08s-16.32,1-31.43-14.43S294.71,181,283.32,184c0,0,9.9,1.87,19.65,13.11S327.47,226.62,348.21,215.08Z"/><path class="cls-29" d="M349,211.46s1.83-13-6.61-21.43c-8-7.95-18.12-15.35-34.32-18.12C308.08,171.91,346.91,189.1,349,211.46Z"/><path class="cls-30" d="M383.78,141s-.55,13.87-21.2,17.62c-17.36,3.15-26.24-6.84-22.59-18s21.86-8.33,21.86-8.33S386.38,129.15,383.78,141Z"/><path class="cls-26" d="M381.79,132s7.83,8.49-4.67,16.48c-9.68,6.19-21.43,8.65-31.18,2.49-11.77-7.44-4.28-19.29,5.58-22.84S373.75,123,381.79,132Z"/><path class="cls-31" d="M346.1,131.07h0c-4.3,8,5.29,6.82,4.72,16.56-.45,7.67,16.73,5.38,16.73,5.38h0c-7.27,2.32-14.91,2.16-21.62-2.07C336.49,145,339.46,136.15,346.1,131.07Z"/><path class="cls-28" d="M380.49,132.51s-10.28-.29-18,7.07-11.54,9.39-19,8.13a20.46,20.46,0,0,0,10.77-6.32C359.13,136.05,366.27,127.39,380.49,132.51Z"/><path class="cls-29" d="M381.4,134.18s2.61,6-1.7,10c-4.08,3.79-9.57,7.35-19.36,8.82C360.34,153,382.61,144.6,381.4,134.18Z"/><path class="cls-32" d="M359,61.92s4.55,8.75-6.85,18.34c-9.59,8.07-18.59,5-20.27-3.1s10.53-12.85,10.53-12.85S356.43,53.72,359,61.92Z"/><path class="cls-26" d="M354.6,57.08s7.82,2.47,2.93,11.81c-3.78,7.23-10.15,12.89-18.33,12.53-9.89-.43-9.45-10.37-4.63-16S346.49,54.41,354.6,57.08Z"/><path class="cls-27" d="M332.28,69.12h0c.18,6.44,5.68,2.34,8.76,8.54,2.43,4.89,12.21-2.59,12.21-2.59h0c-3.66,4-8.43,6.6-14.05,6.35C331.26,81.08,330,74.6,332.28,69.12Z"/><path class="cls-28" d="M354,57.87a19.35,19.35,0,0,0-8.58,10.7c-2.13,7.25-3.8,9.86-8.83,11.71a14.54,14.54,0,0,0,4.41-7.7C342.07,67.6,343.41,59.74,354,57.87Z"/><path class="cls-29" d="M355.14,58.59s3.73,2.79,2.49,6.78c-1.18,3.78-3.3,7.91-8.82,12.27C348.81,77.64,359.56,64.58,355.14,58.59Z"/><path class="cls-33" d="M363.61,2c-.6-1-1.59-2.15-2.79-2a18.61,18.61,0,0,1-2.54.25c-1.07,0-1.07.26-1.87.66s-2.68.38-3.22,2.24-1,2.94.37,4,2.25,2.69,2.79,3.09a9.39,9.39,0,0,0,3.46,1.49c1.2.14,3.6.83,4.14-.64a25.15,25.15,0,0,0,1.24-5.2C365.47,3.91,364.21,3,363.61,2Z"/></g></g></g></svg>